<svg xmlns="http://www.w3.org/2000/svg" viewBox="0 0 200 200">
  <defs>
    <linearGradient id="appIconGradient" x1="0%" y1="0%" x2="100%" y2="100%">
      <stop offset="0%" style="stop-color:#2DD4BF;stop-opacity:1" />
      <stop offset="100%" style="stop-color:#14B8A6;stop-opacity:1" />
    </linearGradient>
  </defs>
  
  <!-- Rounded square background -->
  <rect x="0" y="0" width="200" height="200" rx="45" fill="url(#appIconGradient)"/>
  
  <!-- Main trash can icon centered -->
  <g transform="translate(100, 100)">
    <!-- Lid -->
    <rect x="-35" y="-50" width="70" height="10" rx="5" fill="#000000"/>
    <!-- Handle -->
    <rect x="-15" y="-60" width="30" height="10" rx="5" fill="#000000"/>
    
    <!-- Main body -->
    <rect x="-30" y="-40" width="60" height="80" rx="10" fill="#000000"/>
    
    <!-- Recycle symbol in center -->
    <g transform="translate(0, 0)">
      <g fill="url(#appIconGradient)" stroke="none">
        <!-- Arrow 1 -->
        <path d="M -12,-12 L 0,-24 L 12,-12 L 8,-12 L 8,0 L -8,0 L -8,-12 Z"/>
        <!-- Arrow 2 -->
        <g transform="rotate(120)">
          <path d="M -12,-12 L 0,-24 L 12,-12 L 8,-12 L 8,0 L -8,0 L -8,-12 Z"/>
        </g>
        <!-- Arrow 3 -->
        <g transform="rotate(240)">
          <path d="M -12,-12 L 0,-24 L 12,-12 L 8,-12 L 8,0 L -8,0 L -8,-12 Z"/>
        </g>
      </g>
    </g>
  </g>
</svg>