<svg xmlns="http://www.w3.org/2000/svg" viewBox="0 0 100 100">
  <defs>
    <linearGradient id="faviconGradient" x1="0%" y1="0%" x2="100%" y2="100%">
      <stop offset="0%" style="stop-color:#2DD4BF;stop-opacity:1" />
      <stop offset="100%" style="stop-color:#14B8A6;stop-opacity:1" />
    </linearGradient>
  </defs>
  
  <!-- Trash can with recycle symbol -->
  <g transform="translate(20, 15)">
    <!-- Lid -->
    <rect x="5" y="5" width="50" height="6" rx="3" fill="url(#faviconGradient)"/>
    <!-- Handle -->
    <rect x="20" y="0" width="20" height="6" rx="3" fill="url(#faviconGradient)"/>
    
    <!-- Main body -->
    <rect x="10" y="11" width="40" height="60" rx="6" fill="url(#faviconGradient)"/>
    
    <!-- Recycle symbol -->
    <g transform="translate(30, 41)">
      <g fill="#000000">
        <!-- Arrow pointing up-right -->
        <path d="M -6,-6 L 2,-12 L 6,-6 L 3,-6 L 3,2 L -3,2 L -3,-6 Z"/>
        <!-- Arrow pointing down -->
        <g transform="rotate(120)">
          <path d="M -6,-6 L 2,-12 L 6,-6 L 3,-6 L 3,2 L -3,2 L -3,-6 Z"/>
        </g>
        <!-- Arrow pointing up-left -->
        <g transform="rotate(240)">
          <path d="M -6,-6 L 2,-12 L 6,-6 L 3,-6 L 3,2 L -3,2 L -3,-6 Z"/>
        </g>
      </g>
    </g>
  </g>
</svg>