<svg xmlns="http://www.w3.org/2000/svg" viewBox="0 0 100 100">
  <!-- Arrow pointing to trash -->
  <path d="M20 25 Q30 15, 45 20 L55 25 L50 30 L45 25 L35 22" fill="#2DD4BF" stroke="#2DD4BF" stroke-width="2"/>
  
  <!-- Trash bin -->
  <g transform="translate(20, 45)">
    <!-- Lid -->
    <rect x="0" y="0" width="60" height="8" rx="4" fill="#2DD4BF"/>
    
    <!-- Bin body -->
    <path d="M5 8 L55 8 L52 45 L8 45 Z" fill="#2DD4BF"/>
    
    <!-- Recycle symbol -->
    <g transform="translate(30, 25)">
      <!-- Arrow 1 -->
      <path d="M-8,-5 L-3,-10 L-3,-7 L3,-7 L3,-3 L-3,-3 L-3,0 Z" fill="#000"/>
      <!-- Arrow 2 -->
      <path d="M5,-3 L10,3 L8,3 L8,8 L3,8 L3,3 L0,3 L5,-3 Z" fill="#000"/>
      <!-- Arrow 3 -->
      <path d="M3,10 L-3,5 L0,5 L0,0 L5,0 L5,5 L8,5 L3,10 Z" fill="#000"/>
    </g>
  </g>
</svg>
